<svg width="57" height="57" viewBox="0 0 57 57" fill="none" xmlns="http://www.w3.org/2000/svg">
<path fill-rule="evenodd" clip-rule="evenodd" d="M24.4693 50.5814V22.0007C24.4693 21.0918 24.7428 20.5475 25.2925 20.3725C34.4479 18.2076 43.6972 24.5942 44.5375 34.2162C53.4878 30.4368 61.2701 41.8262 54.3338 48.6652C52.5762 50.3982 50.4683 51.2647 48.01 51.2647L24.945 51.2397C24.6402 51.138 24.4693 50.8213 24.4693 50.5814ZM18.2651 49.7409C18.2651 51.807 22.1904 51.8324 22.1904 49.7409V22.2428C22.1904 19.6405 18.2651 19.6518 18.2651 22.2428V49.7409ZM12.1691 49.7409C12.1691 51.759 16.0916 51.838 16.0916 49.7409V33.5329C16.0916 30.9305 12.1691 30.9418 12.1691 33.5329V49.7409ZM6.09596 48.899C6.09596 50.9763 9.99567 51.0102 9.99567 48.899V31.1421C9.99567 28.6272 6.09596 28.5962 6.09596 31.1421V48.899ZM0 45.6426C0 48.0672 3.89686 48.6797 3.89686 45.6426V38.0236C3.89686 35.4438 0 35.4664 0 38.0236V45.6426Z" fill="black"/>
<path d="M27.207 21.38C27.207 21.9323 27.6547 22.38 28.207 22.38C28.7593 22.38 29.207 21.9323 29.207 21.38H27.207ZM28.9141 7.88121C28.5236 7.49069 27.8904 7.49069 27.4999 7.88121L21.136 14.2452C20.7454 14.6357 20.7454 15.2689 21.136 15.6594C21.5265 16.0499 22.1597 16.0499 22.5502 15.6594L28.207 10.0025L33.8639 15.6594C34.2544 16.0499 34.8876 16.0499 35.2781 15.6594C35.6686 15.2689 35.6686 14.6357 35.2781 14.2452L28.9141 7.88121ZM29.207 21.38V8.58832H27.207V21.38H29.207Z" fill="black"/>
</svg>
