<svg width="57" height="57" viewBox="0 0 57 57" fill="none" xmlns="http://www.w3.org/2000/svg">
<path fill-rule="evenodd" clip-rule="evenodd" d="M24.4693 50.5814V22.0007C24.4693 21.0918 24.7428 20.5475 25.2925 20.3725C34.4479 18.2076 43.6972 24.5942 44.5375 34.2162C53.4878 30.4368 61.2701 41.8262 54.3338 48.6652C52.5762 50.3982 50.4683 51.2647 48.01 51.2647L24.945 51.2397C24.6402 51.138 24.4693 50.8213 24.4693 50.5814ZM18.2651 49.7409C18.2651 51.807 22.1904 51.8324 22.1904 49.7409V22.2428C22.1904 19.6405 18.2651 19.6518 18.2651 22.2428V49.7409ZM12.1691 49.7409C12.1691 51.759 16.0916 51.838 16.0916 49.7409V33.5329C16.0916 30.9305 12.1691 30.9418 12.1691 33.5329V49.7409ZM6.09596 48.899C6.09596 50.9763 9.99567 51.0102 9.99567 48.899V31.1421C9.99567 28.6272 6.09596 28.5962 6.09596 31.1421V48.899ZM0 45.6426C0 48.0672 3.89686 48.6797 3.89686 45.6426V38.0236C3.89686 35.4438 0 35.4664 0 38.0236V45.6426Z" fill="white"/>
<path d="M27.2073 21.38C27.2073 21.9323 27.655 22.38 28.2073 22.38C28.7596 22.38 29.2073 21.9323 29.2073 21.38H27.2073ZM28.9144 7.88121C28.5239 7.49069 27.8907 7.49069 27.5002 7.88121L21.1362 14.2452C20.7457 14.6357 20.7457 15.2689 21.1362 15.6594C21.5267 16.0499 22.1599 16.0499 22.5504 15.6594L28.2073 10.0025L33.8641 15.6594C34.2547 16.0499 34.8878 16.0499 35.2783 15.6594C35.6689 15.2689 35.6689 14.6357 35.2783 14.2452L28.9144 7.88121ZM29.2073 21.38V8.58832H27.2073V21.38H29.2073Z" fill="white"/>
</svg>
