<svg width="110" height="76" viewBox="0 0 110 76" fill="none" xmlns="http://www.w3.org/2000/svg">
<path d="M99.8207 57.5166V53.4098V28.7583V4.10684C99.8207 1.85068 97.9893 0 95.748 0H14.2623C12.021 0 10.1806 1.84158 10.1806 4.10684V28.7583V53.4098V57.5166L0 69.8423C0 73.2383 2.73492 76 6.10653 76H103.893C107.261 76 110 73.237 110 69.8423L99.8207 57.5166ZM63.1558 73.9544H46.8597C46.2965 73.9544 45.8402 73.4982 45.8402 72.9264C45.8402 72.3545 46.2965 71.8984 46.8597 71.8984H63.1558C63.719 71.8984 64.1753 72.3545 64.1753 72.9264C64.1649 73.4982 63.7177 73.9544 63.1558 73.9544ZM38.2064 69.8475L41.3151 66.0851H68.6811L71.7949 69.8475H38.2064ZM94.0867 50.2516C94.0867 52.2336 92.4859 53.8373 90.5308 53.8373H19.4692C17.5179 53.8373 15.9172 52.2193 15.9172 50.2516V7.27405C15.9172 5.29211 17.5179 3.68836 19.4692 3.68836H45.0785L59.5483 11.2704L40.5405 31.9996L64.3557 50.4141L54.4381 25.261L70.9559 17.2474L65.8211 3.68316H90.5308C92.4859 3.68316 94.0867 5.29731 94.0867 7.26885V50.2516Z" fill="#5DC080"/>
</svg>
