<svg width="99" height="99" viewBox="0 0 99 99" fill="none" xmlns="http://www.w3.org/2000/svg">
<path fill-rule="evenodd" clip-rule="evenodd" d="M0 49.5C0 22.1619 22.1619 0 49.5 0C76.838 0 99 22.1619 99 49.5C99 76.838 76.838 99 49.5 99C22.1619 99 0 76.838 0 49.5ZM78.3711 39.1682C80.1247 37.4071 80.1185 34.5578 78.3572 32.8043L75.1684 29.6292C73.4072 27.8756 70.5582 27.8817 68.8046 29.6429L42.8324 55.7271L27.8875 40.9901C26.1179 39.2453 23.2687 39.2652 21.5237 41.035L18.3641 44.2391C16.6191 46.0084 16.6391 48.8578 18.4087 50.603L39.731 71.6283C41.4945 73.3676 44.3317 73.3545 46.0795 71.5995L78.3711 39.1682Z" fill="#5DC080"/>
</svg>
