<svg width="29" height="29" viewBox="0 0 29 29" fill="none" xmlns="http://www.w3.org/2000/svg">
<path d="M9.66666 6.04173C8.4724 6.04266 7.84641 6.05783 7.36118 6.30507C6.90645 6.53676 6.53675 6.90646 6.30506 7.36119C6.04166 7.87814 6.04166 8.55487 6.04166 9.90833V21.5083C6.04166 22.8618 6.04166 23.5386 6.30506 24.0555C6.53675 24.5102 6.90645 24.8799 7.36118 25.1116C7.87813 25.375 8.55486 25.375 9.90832 25.375H19.0917C20.4451 25.375 21.1219 25.375 21.6388 25.1116C22.0935 24.8799 22.4633 24.5102 22.6949 24.0555C22.9583 23.5386 22.9583 22.8618 22.9583 21.5083V9.90833C22.9583 8.55487 22.9583 7.87814 22.6949 7.36119C22.4633 6.90646 22.0935 6.53676 21.6388 6.30507C21.1536 6.05783 20.5276 6.04266 19.3333 6.04173M9.66666 6.04173V8.45833H19.3333V6.04173M9.66666 6.04173V5.68776C9.66666 5.14067 9.88399 4.616 10.2708 4.22917C10.6577 3.84233 11.1823 3.625 11.7294 3.625H17.2706C17.8176 3.625 18.3424 3.84233 18.7292 4.22917C19.1159 4.616 19.3333 5.14067 19.3333 5.68776V6.04173" stroke="#5DC080" stroke-width="2" stroke-linecap="round" stroke-linejoin="round"/>
</svg>
