<svg width="26" height="27" viewBox="0 0 26 27" fill="none" xmlns="http://www.w3.org/2000/svg">
<path fill-rule="evenodd" clip-rule="evenodd" d="M9.92642 3.55394C9.74984 3.9006 9.74984 4.3556 9.74984 5.26669V12.4167H8.45309C7.4965 12.4167 7.01767 12.4167 6.79125 12.6074C6.6941 12.689 6.61743 12.7923 6.56738 12.909C6.51734 13.0256 6.49532 13.1523 6.50309 13.279C6.5215 13.5759 6.85192 13.9214 7.51167 14.6137L12.0595 19.3814C12.3867 19.7259 12.5503 19.8971 12.742 19.961C12.9093 20.0171 13.0904 20.0171 13.2577 19.961C13.4494 19.8971 13.613 19.7259 13.9402 19.3814L18.488 14.6148C19.1488 13.9214 19.4782 13.5748 19.4955 13.279C19.5034 13.1524 19.4815 13.0257 19.4317 12.9091C19.3818 12.7925 19.3054 12.6891 19.2084 12.6074C18.982 12.4167 18.5043 12.4167 17.5466 12.4167H16.2498V5.26669C16.2498 4.35669 16.2498 3.90169 16.0722 3.55394C15.9166 3.24807 15.6682 2.9993 15.3626 2.84327C15.0159 2.66669 14.5609 2.66669 13.6498 2.66669H12.3498C11.4398 2.66669 10.9848 2.66669 10.6371 2.84327C10.3311 2.99911 10.0823 3.2479 9.92642 3.55394ZM5.4165 23.25C5.4165 23.5373 5.53064 23.8129 5.73381 24.0161C5.93697 24.2192 6.21252 24.3334 6.49984 24.3334H19.4998C19.7872 24.3334 20.0627 24.2192 20.2659 24.0161C20.469 23.8129 20.5832 23.5373 20.5832 23.25C20.5832 22.9627 20.469 22.6872 20.2659 22.484C20.0627 22.2808 19.7872 22.1667 19.4998 22.1667H6.49984C6.21252 22.1667 5.93697 22.2808 5.73381 22.484C5.53064 22.6872 5.4165 22.9627 5.4165 23.25Z" fill="white"/>
</svg>
