<svg width="29" height="29" viewBox="0 0 29 29" fill="none" xmlns="http://www.w3.org/2000/svg">
<path fill-rule="evenodd" clip-rule="evenodd" d="M13.2615 17.5329C13.3793 17.4151 13.4728 17.2752 13.5365 17.1213C13.6003 16.9674 13.6331 16.8024 13.6331 16.6357C13.6331 16.4691 13.6003 16.3041 13.5365 16.1502C13.4728 15.9962 13.3793 15.8564 13.2615 15.7386C12.9305 15.4075 12.6679 15.0146 12.4887 14.5821C12.3096 14.1496 12.2174 13.6861 12.2174 13.218C12.2174 12.7499 12.3096 12.2863 12.4887 11.8538C12.6679 11.4214 12.9305 11.0284 13.2615 10.6974L17.5341 6.42593C17.8651 6.09492 18.2581 5.83235 18.6906 5.65321C19.1231 5.47407 19.5866 5.38187 20.0547 5.38187C20.5228 5.38187 20.9864 5.47407 21.4188 5.65321C21.8513 5.83235 22.2443 6.09492 22.5753 6.42593C22.9063 6.75693 23.1689 7.1499 23.348 7.58238C23.5272 8.01486 23.6194 8.47839 23.6194 8.94651C23.6194 9.41463 23.5272 9.87816 23.348 10.3106C23.1689 10.7431 22.9063 11.1361 22.5753 11.4671L21.2546 12.7866C21.1368 12.9044 21.0433 13.0443 20.9796 13.1982C20.9158 13.3522 20.883 13.5172 20.883 13.6838C20.883 13.8504 20.9158 14.0154 20.9796 14.1693C21.0433 14.3233 21.1368 14.4631 21.2546 14.581C21.4925 14.8189 21.8153 14.9526 22.1518 14.9526C22.3184 14.9526 22.4834 14.9198 22.6373 14.856C22.7913 14.7922 22.9312 14.6988 23.049 14.581L24.3697 13.2615C25.5141 12.1171 26.157 10.5649 26.157 8.94651C26.157 7.32809 25.5141 5.77595 24.3697 4.63155C23.2253 3.48715 21.6731 2.84424 20.0547 2.84424C18.4363 2.84424 16.8842 3.48715 15.7398 4.63155L11.4671 8.90301C10.9004 9.46965 10.4509 10.1424 10.1442 10.8827C9.83755 11.6231 9.6797 12.4166 9.6797 13.218C9.6797 14.0193 9.83755 14.8129 10.1442 15.5532C10.4509 16.2936 10.9004 16.9663 11.4671 17.5329C11.9625 18.0283 12.7661 18.0283 13.2615 17.5329ZM15.7386 11.4671C15.6207 11.5849 15.5273 11.7248 15.4635 11.8787C15.3997 12.0327 15.3669 12.1977 15.3669 12.3643C15.3669 12.5309 15.3997 12.6959 15.4635 12.8498C15.5273 13.0038 15.6207 13.1437 15.7386 13.2615C16.0696 13.5925 16.3321 13.9854 16.5113 14.4179C16.6904 14.8504 16.7826 15.3139 16.7826 15.7821C16.7826 16.2502 16.6904 16.7137 16.5113 17.1462C16.3321 17.5787 16.0696 17.9716 15.7386 18.3026L11.5094 22.5318C11.1801 22.8706 10.7868 23.1405 10.3523 23.3259C9.91781 23.5114 9.45078 23.6086 8.97838 23.6119C8.50597 23.6152 8.03762 23.5246 7.60054 23.3454C7.16346 23.1661 6.76638 22.9017 6.43237 22.5676C6.09837 22.2336 5.8341 21.8364 5.65493 21.3993C5.47577 20.9622 5.38528 20.4938 5.38873 20.0214C5.39217 19.549 5.48949 19.082 5.67502 18.6475C5.86054 18.2131 6.13058 17.8198 6.46943 17.4906L7.70797 16.2521C7.94592 16.0141 8.0796 15.6914 8.0796 15.3549C8.0796 15.0184 7.94592 14.6957 7.70797 14.4577C7.47002 14.2198 7.14729 14.0861 6.81078 14.0861C6.47427 14.0861 6.15154 14.2198 5.91359 14.4577L4.67626 15.6963C3.53186 16.8407 2.88895 18.3928 2.88895 20.0112C2.88895 21.6296 3.53186 23.1818 4.67626 24.3262C5.82066 25.4706 7.3728 26.1135 8.99122 26.1135C10.6096 26.1135 12.1618 25.4706 13.3062 24.3262L17.5353 20.097C18.102 19.5304 18.5515 18.8577 18.8582 18.1173C19.1649 17.3769 19.3227 16.5834 19.3227 15.7821C19.3227 14.9807 19.1649 14.1872 18.8582 13.4468C18.5515 12.7064 18.102 12.0337 17.5353 11.4671C17.4175 11.3493 17.2777 11.2558 17.1237 11.192C16.9698 11.1283 16.8048 11.0954 16.6382 11.0954C16.4715 11.0954 16.3065 11.1283 16.1526 11.192C15.9987 11.2558 15.8588 11.3493 15.741 11.4671H15.7386Z" fill="#5DC080"/>
</svg>
