<svg width="121" height="46" viewBox="0 0 121 46" fill="none" xmlns="http://www.w3.org/2000/svg">
<path d="M41.9399 15.0408C41.8466 14.9475 41.6733 14.8208 41.4199 14.6608C41.1799 14.5008 40.8799 14.3475 40.5199 14.2008C40.1733 14.0542 39.7933 13.9275 39.3799 13.8208C38.9666 13.7008 38.5466 13.6408 38.1199 13.6408C37.3733 13.6408 36.8066 13.7808 36.4199 14.0608C36.0466 14.3408 35.8599 14.7342 35.8599 15.2408C35.8599 15.6275 35.9799 15.9342 36.2199 16.1608C36.4599 16.3875 36.8199 16.5808 37.2999 16.7408C37.7799 16.9008 38.3799 17.0742 39.0999 17.2608C40.0333 17.4875 40.8399 17.7675 41.5199 18.1008C42.2133 18.4208 42.7399 18.8475 43.0999 19.3808C43.4733 19.9008 43.6599 20.5942 43.6599 21.4608C43.6599 22.2208 43.5199 22.8742 43.2399 23.4208C42.9599 23.9542 42.5733 24.3875 42.0799 24.7208C41.5866 25.0542 41.0266 25.3008 40.3999 25.4608C39.7733 25.6075 39.1066 25.6808 38.3999 25.6808C37.6933 25.6808 36.9866 25.6075 36.2799 25.4608C35.5733 25.3142 34.8933 25.1075 34.2399 24.8408C33.5866 24.5608 32.9866 24.2275 32.4399 23.8408L33.6599 21.4608C33.7799 21.5808 33.9933 21.7408 34.2999 21.9408C34.6066 22.1275 34.9799 22.3208 35.4199 22.5208C35.8599 22.7075 36.3399 22.8675 36.8599 23.0008C37.3799 23.1342 37.9066 23.2008 38.4399 23.2008C39.1866 23.2008 39.7533 23.0742 40.1399 22.8208C40.5266 22.5675 40.7199 22.2075 40.7199 21.7408C40.7199 21.3142 40.5666 20.9808 40.2599 20.7408C39.9533 20.5008 39.5266 20.2942 38.9799 20.1208C38.4333 19.9342 37.7866 19.7342 37.0399 19.5208C36.1466 19.2675 35.3999 18.9875 34.7999 18.6808C34.1999 18.3608 33.7533 17.9608 33.4599 17.4808C33.1666 17.0008 33.0199 16.4008 33.0199 15.6808C33.0199 14.7075 33.2466 13.8942 33.6999 13.2408C34.1666 12.5742 34.7933 12.0742 35.5799 11.7408C36.3666 11.3942 37.2399 11.2208 38.1999 11.2208C38.8666 11.2208 39.4933 11.2942 40.0799 11.4408C40.6799 11.5875 41.2399 11.7808 41.7599 12.0208C42.2799 12.2608 42.7466 12.5208 43.1599 12.8008L41.9399 15.0408Z" fill="#5DC080"/>
<path d="M44.7265 22.4208C44.7265 21.7408 44.9132 21.1475 45.2865 20.6408C45.6732 20.1208 46.2065 19.7208 46.8865 19.4408C47.5665 19.1608 48.3465 19.0208 49.2265 19.0208C49.6665 19.0208 50.1132 19.0542 50.5665 19.1208C51.0198 19.1875 51.4132 19.2942 51.7465 19.4408V18.8808C51.7465 18.2142 51.5465 17.7008 51.1465 17.3408C50.7598 16.9808 50.1798 16.8008 49.4065 16.8008C48.8332 16.8008 48.2865 16.9008 47.7665 17.1008C47.2465 17.3008 46.6998 17.5942 46.1265 17.9808L45.2665 16.2208C45.9598 15.7675 46.6665 15.4275 47.3865 15.2008C48.1198 14.9742 48.8865 14.8608 49.6865 14.8608C51.1798 14.8608 52.3398 15.2342 53.1665 15.9808C54.0065 16.7275 54.4265 17.7942 54.4265 19.1808V22.5208C54.4265 22.8008 54.4732 23.0008 54.5665 23.1208C54.6732 23.2408 54.8398 23.3142 55.0665 23.3408V25.5208C54.8265 25.5608 54.6065 25.5942 54.4065 25.6208C54.2198 25.6475 54.0598 25.6608 53.9265 25.6608C53.3932 25.6608 52.9865 25.5408 52.7065 25.3008C52.4398 25.0608 52.2732 24.7675 52.2065 24.4208L52.1465 23.8808C51.6932 24.4675 51.1265 24.9208 50.4465 25.2408C49.7665 25.5608 49.0732 25.7208 48.3665 25.7208C47.6732 25.7208 47.0465 25.5808 46.4865 25.3008C45.9398 25.0075 45.5065 24.6142 45.1865 24.1208C44.8798 23.6142 44.7265 23.0475 44.7265 22.4208ZM51.2465 22.9608C51.3932 22.8008 51.5132 22.6408 51.6065 22.4808C51.6998 22.3208 51.7465 22.1742 51.7465 22.0408V20.9808C51.4265 20.8475 51.0798 20.7475 50.7065 20.6808C50.3332 20.6008 49.9798 20.5608 49.6465 20.5608C48.9532 20.5608 48.3798 20.7142 47.9265 21.0208C47.4865 21.3142 47.2665 21.7075 47.2665 22.2008C47.2665 22.4675 47.3398 22.7208 47.4865 22.9608C47.6332 23.2008 47.8465 23.3942 48.1265 23.5408C48.4065 23.6875 48.7398 23.7608 49.1265 23.7608C49.5265 23.7608 49.9198 23.6875 50.3065 23.5408C50.6932 23.3808 51.0065 23.1875 51.2465 22.9608Z" fill="#5DC080"/>
<path d="M59.3798 25.5208L55.5198 15.0408H58.2998L60.9398 23.0808L63.5998 15.0408H66.1398L62.2998 25.5208H59.3798Z" fill="#5DC080"/>
<path d="M72.0643 25.7208C71.2243 25.7208 70.4643 25.5808 69.7843 25.3008C69.1043 25.0075 68.5243 24.6142 68.0443 24.1208C67.5643 23.6142 67.191 23.0408 66.9243 22.4008C66.671 21.7475 66.5443 21.0608 66.5443 20.3408C66.5443 19.3408 66.7643 18.4275 67.2043 17.6008C67.6576 16.7742 68.2976 16.1142 69.1243 15.6208C69.9643 15.1142 70.951 14.8608 72.0843 14.8608C73.231 14.8608 74.211 15.1142 75.0243 15.6208C75.8377 16.1142 76.4576 16.7742 76.8843 17.6008C77.3243 18.4142 77.5443 19.2942 77.5443 20.2408C77.5443 20.4008 77.5377 20.5675 77.5243 20.7408C77.511 20.9008 77.4977 21.0342 77.4843 21.1408H69.3843C69.4376 21.6742 69.591 22.1408 69.8443 22.5408C70.111 22.9408 70.4443 23.2475 70.8443 23.4608C71.2577 23.6608 71.6977 23.7608 72.1643 23.7608C72.6977 23.7608 73.1977 23.6342 73.6643 23.3808C74.1443 23.1142 74.471 22.7675 74.6443 22.3408L76.9443 22.9808C76.691 23.5142 76.3243 23.9875 75.8443 24.4008C75.3777 24.8142 74.8243 25.1408 74.1843 25.3808C73.5443 25.6075 72.8377 25.7208 72.0643 25.7208ZM69.3243 19.4408H74.8043C74.751 18.9075 74.5977 18.4475 74.3443 18.0608C74.1043 17.6608 73.7843 17.3542 73.3843 17.1408C72.9843 16.9142 72.5376 16.8008 72.0443 16.8008C71.5643 16.8008 71.1243 16.9142 70.7243 17.1408C70.3377 17.3542 70.0177 17.6608 69.7643 18.0608C69.5243 18.4475 69.3777 18.9075 69.3243 19.4408Z" fill="#5DC080"/>
<path d="M78.457 22.4208C78.457 21.7408 78.6436 21.1475 79.017 20.6408C79.4036 20.1208 79.937 19.7208 80.617 19.4408C81.297 19.1608 82.077 19.0208 82.957 19.0208C83.397 19.0208 83.8436 19.0542 84.297 19.1208C84.7503 19.1875 85.1436 19.2942 85.477 19.4408V18.8808C85.477 18.2142 85.277 17.7008 84.877 17.3408C84.4903 16.9808 83.9103 16.8008 83.137 16.8008C82.5636 16.8008 82.017 16.9008 81.497 17.1008C80.977 17.3008 80.4303 17.5942 79.857 17.9808L78.997 16.2208C79.6903 15.7675 80.397 15.4275 81.117 15.2008C81.8503 14.9742 82.617 14.8608 83.417 14.8608C84.9103 14.8608 86.0703 15.2342 86.897 15.9808C87.737 16.7275 88.157 17.7942 88.157 19.1808V22.5208C88.157 22.8008 88.2036 23.0008 88.297 23.1208C88.4036 23.2408 88.5703 23.3142 88.797 23.3408V25.5208C88.557 25.5608 88.337 25.5942 88.137 25.6208C87.9503 25.6475 87.7903 25.6608 87.657 25.6608C87.1236 25.6608 86.717 25.5408 86.437 25.3008C86.1703 25.0608 86.0036 24.7675 85.937 24.4208L85.877 23.8808C85.4236 24.4675 84.857 24.9208 84.177 25.2408C83.497 25.5608 82.8036 25.7208 82.097 25.7208C81.4036 25.7208 80.777 25.5808 80.217 25.3008C79.6703 25.0075 79.237 24.6142 78.917 24.1208C78.6103 23.6142 78.457 23.0475 78.457 22.4208ZM84.977 22.9608C85.1236 22.8008 85.2436 22.6408 85.337 22.4808C85.4303 22.3208 85.477 22.1742 85.477 22.0408V20.9808C85.157 20.8475 84.8103 20.7475 84.437 20.6808C84.0636 20.6008 83.7103 20.5608 83.377 20.5608C82.6836 20.5608 82.1103 20.7142 81.657 21.0208C81.217 21.3142 80.997 21.7075 80.997 22.2008C80.997 22.4675 81.0703 22.7208 81.217 22.9608C81.3636 23.2008 81.577 23.3942 81.857 23.5408C82.137 23.6875 82.4703 23.7608 82.857 23.7608C83.257 23.7608 83.6503 23.6875 84.037 23.5408C84.4236 23.3808 84.737 23.1875 84.977 22.9608Z" fill="#5DC080"/>
<path d="M96.6213 25.7208C95.8213 25.7208 95.108 25.5408 94.4813 25.1808C93.8547 24.8208 93.3613 24.3275 93.0013 23.7008V25.5208H90.6613V10.9208H93.3413V16.8808C93.7147 16.2542 94.2014 15.7608 94.8013 15.4008C95.4147 15.0408 96.128 14.8608 96.9413 14.8608C97.6213 14.8608 98.2413 15.0075 98.8013 15.3008C99.3613 15.5808 99.8413 15.9742 100.241 16.4808C100.655 16.9875 100.968 17.5675 101.181 18.2208C101.408 18.8742 101.521 19.5742 101.521 20.3208C101.521 21.0675 101.395 21.7675 101.141 22.4208C100.901 23.0742 100.561 23.6542 100.121 24.1608C99.6813 24.6542 99.1613 25.0408 98.5613 25.3208C97.9747 25.5875 97.328 25.7208 96.6213 25.7208ZM95.8813 23.4408C96.308 23.4408 96.6947 23.3608 97.0414 23.2008C97.4014 23.0275 97.708 22.8008 97.9613 22.5208C98.228 22.2408 98.428 21.9142 98.5613 21.5408C98.708 21.1542 98.7813 20.7542 98.7813 20.3408C98.7813 19.7675 98.6613 19.2408 98.4213 18.7608C98.1947 18.2675 97.8747 17.8742 97.4613 17.5808C97.0613 17.2875 96.588 17.1408 96.0413 17.1408C95.6547 17.1408 95.2813 17.2342 94.9213 17.4208C94.5747 17.5942 94.2613 17.8342 93.9813 18.1408C93.7147 18.4475 93.5013 18.7942 93.3413 19.1808V21.6808C93.4213 21.9475 93.548 22.1875 93.7213 22.4008C93.908 22.6142 94.1213 22.8008 94.3613 22.9608C94.6013 23.1075 94.848 23.2275 95.1013 23.3208C95.368 23.4008 95.628 23.4408 95.8813 23.4408Z" fill="#5DC080"/>
<path d="M103.317 10.9208H105.997V22.1608C105.997 22.6408 106.077 22.9675 106.237 23.1408C106.397 23.3008 106.617 23.3808 106.897 23.3808C107.11 23.3808 107.33 23.3542 107.557 23.3008C107.784 23.2475 107.984 23.1808 108.157 23.1008L108.517 25.1408C108.157 25.3142 107.737 25.4475 107.257 25.5408C106.777 25.6342 106.344 25.6808 105.957 25.6808C105.117 25.6808 104.464 25.4608 103.997 25.0208C103.544 24.5675 103.317 23.9275 103.317 23.1008V10.9208Z" fill="#5DC080"/>
<path d="M114.545 25.7208C113.705 25.7208 112.945 25.5808 112.265 25.3008C111.585 25.0075 111.005 24.6142 110.525 24.1208C110.045 23.6142 109.671 23.0408 109.405 22.4008C109.151 21.7475 109.025 21.0608 109.025 20.3408C109.025 19.3408 109.245 18.4275 109.685 17.6008C110.138 16.7742 110.778 16.1142 111.605 15.6208C112.445 15.1142 113.431 14.8608 114.565 14.8608C115.711 14.8608 116.691 15.1142 117.505 15.6208C118.318 16.1142 118.938 16.7742 119.365 17.6008C119.805 18.4142 120.025 19.2942 120.025 20.2408C120.025 20.4008 120.018 20.5675 120.005 20.7408C119.991 20.9008 119.978 21.0342 119.965 21.1408H111.865C111.918 21.6742 112.071 22.1408 112.325 22.5408C112.591 22.9408 112.925 23.2475 113.325 23.4608C113.738 23.6608 114.178 23.7608 114.645 23.7608C115.178 23.7608 115.678 23.6342 116.145 23.3808C116.625 23.1142 116.951 22.7675 117.125 22.3408L119.425 22.9808C119.171 23.5142 118.805 23.9875 118.325 24.4008C117.858 24.8142 117.305 25.1408 116.665 25.3808C116.025 25.6075 115.318 25.7208 114.545 25.7208ZM111.805 19.4408H117.285C117.231 18.9075 117.078 18.4475 116.825 18.0608C116.585 17.6608 116.265 17.3542 115.865 17.1408C115.465 16.9142 115.018 16.8008 114.525 16.8008C114.045 16.8008 113.605 16.9142 113.205 17.1408C112.818 17.3542 112.498 17.6608 112.245 18.0608C112.005 18.4475 111.858 18.9075 111.805 19.4408Z" fill="#5DC080"/>
<path d="M35.9855 45.5208H6.08647C5.253 45.4861 4.43439 45.2833 3.67751 44.9239C2.92064 44.5648 2.24035 44.0562 1.67556 43.4275C1.11077 42.7989 0.672571 42.0621 0.386055 41.2599C0.0995391 40.4575 -0.029719 39.6053 0.00573201 38.7516V31.367C0.00573201 30.8774 0.195653 30.4077 0.533699 30.0616C0.871769 29.7153 1.33025 29.5208 1.80832 29.5208C2.28642 29.5208 2.7449 29.7153 3.08295 30.0616C3.42102 30.4077 3.61092 30.8774 3.61092 31.367V38.7516C3.54888 39.4824 3.76389 40.2098 4.21139 40.7826C4.65887 41.3557 5.30451 41.7301 6.01437 41.8285H35.9855C36.6954 41.7301 37.341 41.3557 37.7885 40.7826C38.2361 40.2098 38.4509 39.4824 38.3889 38.7516V31.367C38.3889 30.8774 38.5788 30.4077 38.917 30.0616C39.2549 29.7153 39.7135 29.5208 40.1915 29.5208C40.6696 29.5208 41.1281 29.7153 41.4661 30.0616C41.8042 30.4077 41.9941 30.8774 41.9941 31.367V38.7516C42.0662 40.4634 41.4752 42.1348 40.3499 43.4024C39.2246 44.6704 37.6561 45.4315 35.9855 45.5208Z" fill="#5DC080"/>
<path d="M19.2146 38.6042C19.0012 38.605 18.7895 38.5634 18.5924 38.4815C18.3952 38.3999 18.2162 38.2794 18.0663 38.1275L9.39964 29.4608C9.1126 29.1527 8.95634 28.7452 8.96375 28.3242C8.97118 27.9032 9.14172 27.5017 9.43947 27.2038C9.73719 26.9061 10.1389 26.7356 10.5598 26.7282C10.9808 26.7209 11.3883 26.8771 11.6963 27.1642L19.2146 34.6825L26.733 27.1642C27.0411 26.8771 27.4484 26.7209 27.8694 26.7282C28.2904 26.7356 28.6921 26.9061 28.9898 27.2038C29.2875 27.5017 29.458 27.9032 29.4656 28.3242C29.4729 28.7452 29.3167 29.1527 29.0296 29.4608L20.363 38.1275C20.213 38.2794 20.0341 38.3999 19.8369 38.4815C19.6397 38.5634 19.4281 38.605 19.2146 38.6042Z" fill="#5DC080"/>
<path d="M19.2146 38.6042C18.7854 38.5985 18.3752 38.4256 18.0717 38.1221C17.7681 37.8185 17.5952 37.4084 17.5896 36.9792V13.1458C17.5896 12.7149 17.7608 12.3015 18.0656 11.9968C18.3702 11.6921 18.7836 11.5208 19.2146 11.5208C19.6455 11.5208 20.0589 11.6921 20.3636 11.9968C20.6684 12.3015 20.8396 12.7149 20.8396 13.1458V36.9792C20.834 37.4084 20.6611 37.8185 20.3575 38.1221C20.054 38.4256 19.6438 38.5985 19.2146 38.6042Z" fill="#5DC080"/>
<path d="M18.9635 10.5208C18.6994 10.5196 18.447 10.4813 18.2602 10.414C18.0734 10.3468 17.967 10.2559 17.9635 10.1608V4.88084C17.9635 4.78537 18.0688 4.6938 18.2564 4.62629C18.4439 4.55877 18.6983 4.52084 18.9635 4.52084C19.2287 4.52084 19.4831 4.55877 19.6706 4.62629C19.8582 4.6938 19.9635 4.78537 19.9635 4.88084V10.1608C19.96 10.2559 19.8536 10.3468 19.6668 10.414C19.48 10.4813 19.2276 10.5196 18.9635 10.5208Z" fill="#5DC080"/>
<path d="M14.9635 8.52084C14.6994 8.5196 14.447 8.48129 14.2602 8.41404C14.0734 8.3468 13.967 8.25593 13.9635 8.16084V2.88084C13.9635 2.78537 14.0688 2.6938 14.2564 2.62629C14.4439 2.55877 14.6983 2.52084 14.9635 2.52084C15.2287 2.52084 15.4831 2.55877 15.6706 2.62629C15.8582 2.6938 15.9635 2.78537 15.9635 2.88084V8.16084C15.96 8.25593 15.8536 8.3468 15.6668 8.41404C15.48 8.48129 15.2276 8.5196 14.9635 8.52084Z" fill="#5DC080"/>
<path d="M22.9635 9.52084C22.6994 9.51897 22.447 9.46152 22.2602 9.36064C22.0734 9.25977 21.967 9.12348 21.9635 8.98084V1.06084C21.9635 0.917628 22.0688 0.780274 22.2564 0.679006C22.4439 0.577738 22.6983 0.520844 22.9635 0.520844C23.2287 0.520844 23.4831 0.577738 23.6706 0.679006C23.8582 0.780274 23.9635 0.917628 23.9635 1.06084V8.98084C23.96 9.12348 23.8536 9.25977 23.6668 9.36064C23.48 9.46152 23.2276 9.51897 22.9635 9.52084Z" fill="#5DC080"/>
</svg>
