<svg width="17" height="17" viewBox="0 0 17 17" fill="none" xmlns="http://www.w3.org/2000/svg">
<path d="M5.27225 0C3.70831 0.672108 2.37596 1.78487 1.43921 3.20127C0.50245 4.61767 0.00218333 6.27592 0 7.97175C0 10.2778 0.920133 12.4893 2.55797 14.12C4.19583 15.7506 6.41725 16.6667 8.7335 16.6667C10.4052 16.665 12.0414 16.1857 13.4477 15.2856C14.8539 14.3855 15.9712 13.1025 16.6667 11.589C15.5741 12.0627 14.3957 12.3088 13.204 12.3122C10.8878 12.3122 8.66633 11.3961 7.0285 9.76542C5.39067 8.13483 4.4705 5.92325 4.4705 3.61722C4.47367 2.36815 4.74708 1.13442 5.27225 0Z" fill="white"/>
</svg>
