<svg width="404" height="290" viewBox="0 0 404 290" fill="none" xmlns="http://www.w3.org/2000/svg">
<path d="M403.021 52.4177L380.6 29.8643C379.975 29.2358 379.121 28.8796 378.235 28.8796H333.989C332.145 28.8796 330.655 30.3776 330.655 32.2317V119.386C330.655 121.241 332.145 122.739 333.989 122.739H400.666C402.51 122.739 404 121.241 404 119.386V54.7851C404 53.8947 403.646 53.0462 403.021 52.4177ZM396.311 56.325H376.704V36.6104L396.311 56.325ZM396.499 115.196H338.156V36.4219H369.619V59.0486C369.619 60.2154 370.08 61.3345 370.901 62.1596C371.722 62.9847 372.835 63.4482 373.995 63.4482H396.499V115.196ZM355.867 79.685C355.867 80.2506 356.326 80.6801 356.888 80.6801H360.264C360.826 80.6801 361.285 80.2402 361.285 79.6954C361.285 76.7414 363.973 74.2902 367.327 74.2902C370.682 74.2902 373.37 76.7414 373.37 79.685C373.37 82.3352 371.182 84.6293 368.234 85.0169C366.223 85.3102 364.639 87.1434 364.619 89.2175V92.5696C364.619 93.1458 365.087 93.6172 365.66 93.6172H368.994C369.567 93.6172 370.036 93.1458 370.036 92.5696V91.2916C370.036 90.6631 370.453 90.087 371.047 89.8984C375.693 88.39 378.861 84.2417 378.788 79.5383C378.704 73.7245 373.662 68.9792 367.484 68.8954C361.087 68.8221 355.867 73.6721 355.867 79.685ZM363.994 100.112C363.994 101.001 364.345 101.854 364.97 102.482C365.595 103.111 366.443 103.464 367.327 103.464C368.212 103.464 369.06 103.111 369.685 102.482C370.31 101.854 370.661 101.001 370.661 100.112C370.661 99.2228 370.31 98.3702 369.685 97.7416C369.06 97.1129 368.212 96.7598 367.327 96.7598C366.443 96.7598 365.595 97.1129 364.97 97.7416C364.345 98.3702 363.994 99.2228 363.994 100.112Z" fill="url(#paint0_linear_103_96)"/>
<path d="M114.626 19.0115L96.2486 0.795319C95.7362 0.287669 95.036 0 94.3101 0H58.0423C56.5307 0 55.3096 1.2099 55.3096 2.70747V73.1017C55.3096 74.5992 56.5307 75.8091 58.0423 75.8091H112.696C114.207 75.8091 115.429 74.5992 115.429 73.1017V20.9237C115.429 20.2045 115.138 19.5192 114.626 19.0115ZM109.126 22.1674H93.0548V6.2441L109.126 22.1674ZM109.28 69.7173H61.4581V6.0918H87.2478V24.3672C87.2478 25.3097 87.6257 26.2135 88.2983 26.88C88.9709 27.5464 89.8832 27.9208 90.8345 27.9208H109.28V69.7173ZM75.9755 41.0351C75.9755 41.492 76.3512 41.8389 76.8124 41.8389H79.5792C80.0404 41.8389 80.4161 41.4835 80.4161 41.0435C80.4161 38.6576 82.6193 36.6777 85.3691 36.6777C88.1189 36.6777 90.3221 38.6576 90.3221 41.0351C90.3221 43.1757 88.5288 45.0286 86.112 45.3416C84.4639 45.5785 83.1659 47.0592 83.1488 48.7344V51.4419C83.1488 51.9073 83.5331 52.288 84.0028 52.288H86.7354C87.2051 52.288 87.5894 51.9073 87.5894 51.4419V50.4097C87.5894 49.902 87.931 49.4367 88.4177 49.2844C92.2264 48.066 94.8225 44.7155 94.7627 40.9166C94.6944 36.2209 90.5612 32.3881 85.4972 32.3204C80.2539 32.2612 75.9755 36.1786 75.9755 41.0351ZM82.6364 57.5337C82.6364 58.2518 82.9243 58.9404 83.4368 59.4482C83.9493 59.9559 84.6443 60.2412 85.3691 60.2412C86.0938 60.2412 86.7889 59.9559 87.3014 59.4482C87.8139 58.9404 88.1018 58.2518 88.1018 57.5337C88.1018 56.8156 87.8139 56.127 87.3014 55.6192C86.7889 55.1115 86.0938 54.8262 85.3691 54.8262C84.6443 54.8262 83.9493 55.1115 83.4368 55.6192C82.9243 56.127 82.6364 56.8156 82.6364 57.5337Z" fill="url(#paint1_linear_103_96)"/>
<path d="M84.2292 131.248L58.1334 104.647C57.4058 103.906 56.4115 103.485 55.3807 103.485H3.88041C1.73406 103.485 0 105.252 0 107.439V210.237C0 212.424 1.73406 214.191 3.88041 214.191H81.4886C83.635 214.191 85.369 212.424 85.369 210.237V134.041C85.369 132.99 84.9568 131.99 84.2292 131.248ZM76.4199 135.857H53.5982V112.604L76.4199 135.857ZM76.6381 205.295H8.73093V112.381H45.3523V139.069C45.3523 140.446 45.8889 141.766 46.844 142.739C47.7992 143.712 49.0946 144.259 50.4453 144.259H76.6381V205.295ZM29.3456 163.41C29.3456 164.077 29.8792 164.583 30.534 164.583H34.4629C35.1177 164.583 35.6513 164.065 35.6513 163.422C35.6513 159.938 38.7799 157.047 42.6845 157.047C46.5892 157.047 49.7178 159.938 49.7178 163.41C49.7178 166.536 47.1713 169.242 43.7395 169.699C41.3991 170.045 39.5559 172.207 39.5317 174.653V178.607C39.5317 179.287 40.0774 179.843 40.7443 179.843H44.6247C45.2917 179.843 45.8374 179.287 45.8374 178.607V177.1C45.8374 176.358 46.3224 175.679 47.0136 175.456C52.4219 173.677 56.1083 168.784 56.0234 163.237C55.9264 156.379 50.0573 150.782 42.8664 150.684C35.4209 150.597 29.3456 156.318 29.3456 163.41ZM38.8041 187.503C38.8041 188.552 39.2129 189.557 39.9407 190.299C40.6684 191.04 41.6554 191.457 42.6845 191.457C43.7137 191.457 44.7007 191.04 45.4284 190.299C46.1561 189.557 46.5649 188.552 46.5649 187.503C46.5649 186.454 46.1561 185.449 45.4284 184.707C44.7007 183.966 43.7137 183.549 42.6845 183.549C41.6554 183.549 40.6684 183.966 39.9407 184.707C39.2129 185.449 38.8041 186.454 38.8041 187.503Z" fill="url(#paint2_linear_103_96)"/>
<path d="M307.485 94.3637L245.002 31.6191C243.26 29.8705 240.879 28.8796 238.411 28.8796H115.101C109.962 28.8796 105.81 33.0471 105.81 38.2054V280.674C105.81 285.833 109.962 290 115.101 290H300.923C306.062 290 310.214 285.833 310.214 280.674V100.95C310.214 98.4729 309.227 96.1123 307.485 94.3637ZM288.787 105.234H234.143V50.3871L288.787 105.234ZM289.309 269.017H126.715V49.8625H214.4V112.811C214.4 116.057 215.684 119.171 217.971 121.466C220.258 123.762 223.36 125.051 226.594 125.051H289.309V269.017ZM176.074 170.223C176.074 171.796 177.351 172.991 178.919 172.991H188.326C189.894 172.991 191.172 171.767 191.172 170.252C191.172 162.034 198.663 155.214 208.012 155.214C217.361 155.214 224.852 162.034 224.852 170.223C224.852 177.596 218.755 183.978 210.538 185.056C204.934 185.872 200.521 190.972 200.463 196.743V206.068C200.463 207.671 201.769 208.983 203.366 208.983H212.658C214.254 208.983 215.561 207.671 215.561 206.068V202.513C215.561 200.764 216.722 199.162 218.377 198.637C231.327 194.44 240.153 182.9 239.95 169.815C239.718 153.64 225.665 140.439 208.447 140.205C190.62 140.001 176.074 153.495 176.074 170.223ZM198.721 227.051C198.721 229.525 199.7 231.897 201.442 233.646C203.185 235.395 205.548 236.377 208.012 236.377C210.476 236.377 212.839 235.395 214.582 233.646C216.324 231.897 217.303 229.525 217.303 227.051C217.303 224.578 216.324 222.206 214.582 220.457C212.839 218.708 210.476 217.726 208.012 217.726C205.548 217.726 203.185 218.708 201.442 220.457C199.7 222.206 198.721 224.578 198.721 227.051Z" fill="url(#paint3_linear_103_96)"/>
<defs>
<linearGradient id="paint0_linear_103_96" x1="330.655" y1="28.8796" x2="416.478" y2="42.171" gradientUnits="userSpaceOnUse">
<stop stop-color="white"/>
<stop offset="0.0001" stop-color="#11998E"/>
<stop offset="1" stop-color="#38EF7D"/>
</linearGradient>
<linearGradient id="paint1_linear_103_96" x1="55.3096" y1="0" x2="125.607" y2="11.0484" gradientUnits="userSpaceOnUse">
<stop stop-color="white"/>
<stop offset="0.0001" stop-color="#11998E"/>
<stop offset="1" stop-color="#38EF7D"/>
</linearGradient>
<linearGradient id="paint2_linear_103_96" x1="0" y1="103.485" x2="99.9534" y2="118.761" gradientUnits="userSpaceOnUse">
<stop stop-color="white"/>
<stop offset="0.0001" stop-color="#11998E"/>
<stop offset="1" stop-color="#38EF7D"/>
</linearGradient>
<linearGradient id="paint3_linear_103_96" x1="105.81" y1="28.8796" x2="344.968" y2="65.9824" gradientUnits="userSpaceOnUse">
<stop stop-color="white"/>
<stop offset="0.0001" stop-color="#11998E"/>
<stop offset="1" stop-color="#38EF7D"/>
</linearGradient>
</defs>
</svg>
