<svg viewBox="0 0 332 324" fill="none" xmlns="http://www.w3.org/2000/svg">
<path d="M12.7692 238.737C5.78872 238.737 0 232.939 0 225.947V98.0527C0 91.0611 5.78872 85.2632 12.7692 85.2632C19.7497 85.2632 25.5385 91.0611 25.5385 98.0527V225.947C25.5385 232.939 19.7497 238.737 12.7692 238.737Z" fill="white"/>
<path d="M89.3845 281.369C82.404 281.369 76.6152 275.571 76.6152 268.579V55.4212C76.6152 48.4296 82.404 42.6317 89.3845 42.6317C96.365 42.6317 102.154 48.4296 102.154 55.4212V268.579C102.154 275.571 96.365 281.369 89.3845 281.369Z" fill="white"/>
<path d="M166 324C159.02 324 153.231 318.202 153.231 311.211V12.7895C153.231 5.79789 159.02 0 166 0C172.981 0 178.769 5.79789 178.769 12.7895V311.211C178.769 318.202 172.981 324 166 324Z" fill="white"/>
<path d="M242.615 281.369C235.635 281.369 229.846 275.571 229.846 268.579V55.4212C229.846 48.4296 235.635 42.6317 242.615 42.6317C249.596 42.6317 255.385 48.4296 255.385 55.4212V268.579C255.385 275.571 249.596 281.369 242.615 281.369Z" fill="white"/>
<path d="M319.231 238.737C312.25 238.737 306.461 232.939 306.461 225.947V98.0527C306.461 91.0611 312.25 85.2632 319.231 85.2632C326.211 85.2632 332 91.0611 332 98.0527V225.947C332 232.939 326.211 238.737 319.231 238.737Z" fill="white"/>
</svg>
