<svg viewBox="0 0 336 336" fill="none" xmlns="http://www.w3.org/2000/svg">
<path fill-rule="evenodd" clip-rule="evenodd" d="M144.24 298.164V129.688C144.24 124.331 145.852 121.122 149.093 120.091C203.061 107.329 257.584 144.976 262.537 201.695C315.296 179.417 361.171 246.554 320.283 286.868C309.923 297.084 297.497 302.192 283.006 302.192L147.044 302.044C145.248 301.445 144.24 299.578 144.24 298.164ZM107.668 293.21C107.668 305.389 130.807 305.538 130.807 293.21V131.116C130.807 115.775 107.668 115.842 107.668 131.116V293.21ZM71.7338 293.21C71.7338 305.106 94.8559 305.572 94.8559 293.21V197.668C94.8559 182.327 71.7338 182.394 71.7338 197.668V293.21ZM35.9341 288.247C35.9341 300.492 58.9218 300.692 58.9218 288.247V183.575C58.9218 168.75 35.9341 168.567 35.9341 183.575V288.247ZM0 269.051C0 283.343 22.9709 286.954 22.9709 269.051V224.139C22.9709 208.932 0 209.065 0 224.139V269.051Z" fill="white"/>
<path d="M161.274 126.03C161.274 128.791 163.513 131.03 166.274 131.03C169.035 131.03 171.274 128.791 171.274 126.03H161.274ZM169.809 47.0904C167.857 45.1378 164.691 45.1378 162.738 47.0904L130.919 78.9102C128.966 80.8629 128.966 84.0287 130.919 85.9813C132.871 87.9339 136.037 87.9339 137.99 85.9813L166.274 57.697L194.558 85.9813C196.511 87.9339 199.677 87.9339 201.629 85.9813C203.582 84.0287 203.582 80.8629 201.629 78.9102L169.809 47.0904ZM171.274 126.03V50.626H161.274V126.03H171.274Z" fill="white" fill-opacity="0.5"/>
</svg>
