<svg viewBox="0 0 397 360" fill="none" xmlns="http://www.w3.org/2000/svg">
<path fill-rule="evenodd" clip-rule="evenodd" d="M154.543 274.462V93.9518C154.543 88.2116 156.27 84.7738 159.742 83.6686C217.566 69.9956 275.982 110.332 281.29 171.102C337.818 147.233 386.969 219.165 343.161 262.359C332.06 273.304 318.747 278.777 303.221 278.777L157.547 278.619C155.622 277.977 154.543 275.977 154.543 274.462ZM115.358 269.153C115.358 282.202 140.15 282.362 140.15 269.153V95.4811C140.15 79.0449 115.358 79.1164 115.358 95.4811V269.153ZM76.8577 269.153C76.8577 281.899 101.631 282.398 101.631 269.153V166.787C101.631 150.351 76.8577 150.422 76.8577 166.787V269.153ZM38.5008 263.836C38.5008 276.956 63.1305 277.17 63.1305 263.836V151.687C63.1305 135.804 38.5008 135.608 38.5008 151.687V263.836ZM0 243.269C0 258.582 24.6117 262.45 24.6117 243.269V195.149C24.6117 178.856 0 178.998 0 195.149V243.269Z" fill="white"/>
<g opacity="0.3">
<path fill-rule="evenodd" clip-rule="evenodd" d="M191.543 237.462V56.9518C191.543 51.2116 193.27 47.7738 196.742 46.6686C254.566 32.9956 312.982 73.3316 318.29 134.102C374.818 110.233 423.969 182.165 380.161 225.359C369.06 236.304 355.747 241.777 340.221 241.777L194.547 241.619C192.622 240.977 191.543 238.977 191.543 237.462ZM152.358 232.153C152.358 245.202 177.15 245.362 177.15 232.153V58.4811C177.15 42.0449 152.358 42.1164 152.358 58.4811V232.153ZM113.858 232.153C113.858 244.899 138.631 245.398 138.631 232.153V129.787C138.631 113.351 113.858 113.422 113.858 129.787V232.153ZM75.5008 226.836C75.5008 239.956 100.131 240.17 100.131 226.836V114.687C100.131 98.8036 75.5008 98.6075 75.5008 114.687V226.836ZM37 206.269C37 221.582 61.6117 225.45 61.6117 206.269V158.149C61.6117 141.856 37 141.998 37 158.149V206.269Z" fill="white"/>
</g>
</svg>
