<svg viewBox="0 0 336 336" fill="none" xmlns="http://www.w3.org/2000/svg">
<path fill-rule="evenodd" clip-rule="evenodd" d="M144.24 298.164V129.688C144.24 124.331 145.852 121.122 149.093 120.091C203.061 107.329 257.584 144.976 262.537 201.695C315.296 179.417 361.171 246.554 320.283 286.868C309.923 297.084 297.497 302.192 283.006 302.192L147.044 302.044C145.248 301.445 144.24 299.578 144.24 298.164ZM107.668 293.21C107.668 305.389 130.807 305.538 130.807 293.21V131.116C130.807 115.775 107.668 115.842 107.668 131.116V293.21ZM71.7338 293.21C71.7338 305.106 94.8559 305.572 94.8559 293.21V197.668C94.8559 182.327 71.7338 182.394 71.7338 197.668V293.21ZM35.9341 288.247C35.9341 300.492 58.9218 300.692 58.9218 288.247V183.575C58.9218 168.75 35.9341 168.567 35.9341 183.575V288.247ZM0 269.051C0 283.343 22.9709 286.954 22.9709 269.051V224.139C22.9709 208.932 0 209.065 0 224.139V269.051Z" fill="white"/>
<path d="M171.274 50.6259C171.274 47.8645 169.035 45.6259 166.274 45.6259C163.513 45.6259 161.274 47.8645 161.274 50.6259H171.274ZM162.738 129.565C164.691 131.518 167.857 131.518 169.81 129.565L201.629 97.7455C203.582 95.7929 203.582 92.6271 201.629 90.6744C199.677 88.7218 196.511 88.7218 194.558 90.6744L166.274 118.959L137.99 90.6744C136.037 88.7218 132.871 88.7218 130.919 90.6744C128.966 92.6271 128.966 95.7929 130.919 97.7455L162.738 129.565ZM161.274 50.6259V126.03H171.274V50.6259H161.274Z" fill="white" fill-opacity="0.5"/>
</svg>
