<svg width="18" height="18" viewBox="0 0 18 18" fill="none" xmlns="http://www.w3.org/2000/svg">
<g clip-path="url(#clip0_31_78)">
<path d="M9.00089 13.5017C11.4863 13.5017 13.5012 11.4868 13.5012 9.00138C13.5012 6.51594 11.4863 4.5011 9.00089 4.5011C6.51545 4.5011 4.50061 6.51594 4.50061 9.00138C4.50061 11.4868 6.51545 13.5017 9.00089 13.5017Z" fill="white"/>
<path fill-rule="evenodd" clip-rule="evenodd" d="M3.37528 8.99915C3.37528 8.3773 2.87213 7.87415 2.25028 7.87415H1.125C0.503156 7.87415 0 8.3773 0 8.99915C0 9.62099 0.503156 10.1241 1.125 10.1241H2.25C2.87213 10.1241 3.37528 9.62099 3.37528 8.99915Z" fill="white"/>
<path fill-rule="evenodd" clip-rule="evenodd" d="M3.43235 12.9765L2.63585 13.7733C2.19625 14.2126 2.19625 14.9248 2.63585 15.3641C3.07516 15.8034 3.78729 15.8034 4.22688 15.3641L5.02366 14.5676C5.46297 14.1283 5.46297 13.4159 5.02366 12.9765C4.58379 12.537 3.87194 12.537 3.43235 12.9765Z" fill="white"/>
<path fill-rule="evenodd" clip-rule="evenodd" d="M9.00085 14.6246C8.37901 14.6246 7.87585 15.1278 7.87585 15.7496V16.8749C7.87585 17.4968 8.37901 17.9999 9.00085 17.9999C9.6227 17.9999 10.1259 17.4968 10.1259 16.8749L10.1247 15.7496C10.1259 15.1278 9.62157 14.6246 9.00085 14.6246Z" fill="white"/>
<path fill-rule="evenodd" clip-rule="evenodd" d="M14.5682 12.9777C14.1297 12.5372 13.4176 12.5372 12.9783 12.9766C12.539 13.4159 12.539 14.1283 12.9783 14.5676L13.7739 15.363C14.2133 15.8045 14.9254 15.8023 15.3647 15.363C15.804 14.9237 15.8051 14.2127 15.3647 13.7722L14.5682 12.9777Z" fill="white"/>
<path fill-rule="evenodd" clip-rule="evenodd" d="M16.8766 7.87415L15.7491 7.8764C15.1295 7.87415 14.6264 8.3773 14.6264 8.99915C14.6241 9.62099 15.1295 10.1241 15.7491 10.1241H16.8744C17.4985 10.1264 17.9994 9.62099 17.9994 8.99915C18.0005 8.37843 17.4985 7.87415 16.8766 7.87415Z" fill="white"/>
<path fill-rule="evenodd" clip-rule="evenodd" d="M14.5682 5.02279L15.3636 4.22713C15.8063 3.78669 15.8029 3.07569 15.3636 2.6361C14.9251 2.19538 14.2133 2.19538 13.7739 2.63497L12.9783 3.4326C12.539 3.86994 12.539 4.58179 12.9783 5.02138C13.4154 5.46351 14.1297 5.46126 14.5682 5.02279Z" fill="white"/>
<path fill-rule="evenodd" clip-rule="evenodd" d="M9.00085 3.37361C9.62157 3.37811 10.1259 2.87046 10.1259 2.25086V1.12586C10.1259 0.501768 9.6227 0.000862009 9.00085 0.000862009C8.37901 -0.00138799 7.87585 0.501768 7.87585 1.12389L7.8781 2.25114C7.87585 2.87046 8.37901 3.37361 9.00085 3.37361Z" fill="white"/>
<path fill-rule="evenodd" clip-rule="evenodd" d="M3.43457 5.02167C3.87191 5.46099 4.58179 5.46099 5.02251 5.02055C5.46519 4.58433 5.46294 3.87024 5.02476 3.43177L4.2291 2.63639C3.78754 2.19455 3.07766 2.19792 2.63807 2.63639C2.1951 3.07486 2.1951 3.78671 2.63469 4.2263L3.43457 5.02167Z" fill="white"/>
</g>
<defs>
<clipPath id="clip0_31_78">
<rect width="18" height="18" fill="white"/>
</clipPath>
</defs>
</svg>
