<svg viewBox="0 0 332 332" fill="none" xmlns="http://www.w3.org/2000/svg">
<g clip-path="url(#clip0_35_169)">
<path fill-rule="evenodd" clip-rule="evenodd" d="M132.608 208.93V115.773C165.679 131.335 191.292 146.367 221.584 162.574C196.599 176.431 165.679 191.978 132.608 208.93ZM316.911 69.4426C311.206 61.9267 301.483 56.0763 291.132 54.1394C260.707 48.3618 70.8984 48.3454 40.4899 54.1394C32.1892 55.6955 24.7977 59.4568 18.4481 65.3007C-8.30602 90.1326 0.0774586 223.298 6.52624 244.869C9.23802 254.206 12.7437 260.94 17.1586 265.36C22.8467 271.204 30.6347 275.227 39.5803 277.032C64.6313 282.213 193.689 285.111 290.603 277.81C299.532 276.254 307.436 272.1 313.67 266.008C338.406 241.276 336.72 100.631 316.911 69.4426Z" fill="white"/>
</g>
<defs>
<clipPath id="clip0_35_169">
<rect width="332" height="332" fill="white"/>
</clipPath>
</defs>
</svg>
